<svg xmlns="http://www.w3.org/2000/svg" xmlns:xlink="http://www.w3.org/1999/xlink" width="1080" zoomAndPan="magnify" viewBox="0 0 810 809.999993" height="1080" preserveAspectRatio="xMidYMid meet" version="1.0"><path stroke-linecap="round" transform="matrix(0.0902205, 0, 0, 0.0902154, -199.065925, -465.873917)" fill="none" stroke-linejoin="bevel" d="M 8831.270709 8309.096329 L 6783.898532 8309.096329 " stroke="#52658c" stroke-width="100" stroke-opacity="1" stroke-miterlimit="22.926001"/><path stroke-linecap="round" transform="matrix(0.0902205, 0, 0, 0.0902154, -199.065925, -465.873917)" fill="none" stroke-linejoin="bevel" d="M 8729.696595 8110.179999 L 6927.513765 8110.179999 " stroke="#52658c" stroke-width="100" stroke-opacity="1" stroke-miterlimit="22.926001"/><path stroke-linecap="round" transform="matrix(0.0902205, 0, 0, 0.0902154, -199.065925, -465.873917)" fill="none" stroke-linejoin="bevel" d="M 8628.122481 7911.306968 L 7071.172294 7911.306968 " stroke="#52658c" stroke-width="100" stroke-opacity="1" stroke-miterlimit="22.926001"/><path stroke-linecap="round" transform="matrix(0.0902205, 0, 0, 0.0902154, -199.065925, -465.873917)" fill="none" stroke-linejoin="bevel" d="M 8628.122481 7712.390638 L 7071.172294 7712.390638 " stroke="#52658c" stroke-width="100" stroke-opacity="1" stroke-miterlimit="22.926001"/><path stroke-linecap="round" transform="matrix(0.0902205, 0, 0, 0.0902154, -199.065925, -465.873917)" fill="none" stroke-linejoin="bevel" d="M 8628.122481 7513.474308 L 7071.172294 7513.474308 " stroke="#52658c" stroke-width="100" stroke-opacity="1" stroke-miterlimit="22.926001"/><path stroke-linecap="round" transform="matrix(0.0902205, 0, 0, 0.0902154, -199.065925, -465.873917)" fill="none" stroke-linejoin="bevel" d="M 8628.122481 7314.601278 L 7071.172294 7314.601278 " stroke="#52658c" stroke-width="100" stroke-opacity="1" stroke-miterlimit="22.926001"/><path stroke-linecap="round" transform="matrix(0.0902205, 0, 0, 0.0902154, -199.065925, -465.873917)" fill="none" stroke-linejoin="bevel" d="M 8628.122481 7115.684948 L 7071.172294 7115.684948 " stroke="#52658c" stroke-width="100" stroke-opacity="1" stroke-miterlimit="22.926001"/><path stroke-linecap="round" transform="matrix(0.0902205, 0, 0, 0.0902154, -199.065925, -465.873917)" fill="none" stroke-linejoin="bevel" d="M 8628.122481 6916.768618 L 7071.172294 6916.768618 " stroke="#52658c" stroke-width="100" stroke-opacity="1" stroke-miterlimit="22.926001"/><path stroke-linecap="round" transform="matrix(0.0902205, 0, 0, 0.0902154, -199.065925, -465.873917)" fill="none" stroke-linejoin="bevel" d="M 7906.106315 6717.852288 L 7071.172294 6717.852288 " stroke="#52658c" stroke-width="100" stroke-opacity="1" stroke-miterlimit="22.926001"/><path stroke-linecap="round" transform="matrix(0.0902205, 0, 0, 0.0902154, -199.065925, -465.873917)" fill="none" stroke-linejoin="bevel" d="M 8628.122481 6717.852288 L 8133.067741 6717.852288 " stroke="#52658c" stroke-width="100" stroke-opacity="1" stroke-miterlimit="22.926001"/><path stroke-linecap="round" transform="matrix(0.0902205, 0, 0, 0.0902154, -199.065925, -465.873917)" fill="none" stroke-linejoin="bevel" d="M 7735.733707 6518.979257 L 7071.172294 6518.979257 " stroke="#52658c" stroke-width="100" stroke-opacity="1" stroke-miterlimit="22.926001"/><path stroke-linecap="round" transform="matrix(0.0902205, 0, 0, 0.0902154, -199.065925, -465.873917)" fill="none" stroke-linejoin="bevel" d="M 8133.673895 6518.979257 L 7905.500161 6518.979257 " stroke="#52658c" stroke-width="100" stroke-opacity="1" stroke-miterlimit="22.926001"/><path stroke-linecap="round" transform="matrix(0.0902205, 0, 0, 0.0902154, -199.065925, -465.873917)" fill="none" stroke-linejoin="bevel" d="M 9211.805614 6518.979257 L 8301.924964 6518.979257 " stroke="#52658c" stroke-width="100" stroke-opacity="1" stroke-miterlimit="22.926001"/><path stroke-linecap="round" transform="matrix(0.0902205, 0, 0, 0.0902154, -199.065925, -465.873917)" fill="none" stroke-linejoin="bevel" d="M 7905.500161 6320.062927 L 7091.998018 6320.062927 " stroke="#52658c" stroke-width="100" stroke-opacity="1" stroke-miterlimit="22.926001"/><path stroke-linecap="round" transform="matrix(0.0902205, 0, 0, 0.0902154, -199.065925, -465.873917)" fill="none" stroke-linejoin="bevel" d="M 8603.270161 6320.062927 L 8133.673895 6320.062927 " stroke="#52658c" stroke-width="100" stroke-opacity="1" stroke-miterlimit="22.926001"/><path stroke-linecap="round" transform="matrix(0.0902205, 0, 0, 0.0902154, -199.065925, -465.873917)" fill="none" stroke-linejoin="bevel" d="M 8525.812323 6121.146597 L 7169.455857 6121.146597 " stroke="#52658c" stroke-width="100" stroke-opacity="1" stroke-miterlimit="22.926001"/><path stroke-linecap="round" transform="matrix(0.0902205, 0, 0, 0.0902154, -199.065925, -465.873917)" fill="none" stroke-linejoin="bevel" d="M 8366.740159 5922.273567 L 7328.484723 5922.273567 " stroke="#52658c" stroke-width="100" stroke-opacity="1" stroke-miterlimit="22.926001"/><path stroke-linecap="round" transform="matrix(0.0902205, 0, 0, 0.0902154, -199.065925, -465.873917)" fill="none" stroke-linejoin="bevel" d="M 5248.380223 11093.75175 L 4773.112086 11093.75175 " stroke="#52658c" stroke-width="100" stroke-opacity="1" stroke-miterlimit="22.926001"/><path stroke-linecap="round" transform="matrix(0.0902205, 0, 0, 0.0902154, -199.065925, -465.873917)" fill="none" stroke-linejoin="bevel" d="M 6575.901071 11093.75175 L 6121.501955 11093.75175 " stroke="#52658c" stroke-width="100" stroke-opacity="1" stroke-miterlimit="22.926001"/><path stroke-linecap="round" transform="matrix(0.0902205, 0, 0, 0.0902154, -199.065925, -465.873917)" fill="none" stroke-linejoin="bevel" d="M 9111.616995 11093.75175 L 6862.482085 11093.75175 " stroke="#52658c" stroke-width="100" stroke-opacity="1" stroke-miterlimit="22.926001"/><path stroke-linecap="round" transform="matrix(0.0902205, 0, 0, 0.0902154, -199.065925, -465.873917)" fill="none" stroke-linejoin="bevel" d="M 5391.995456 10894.835421 L 4916.727319 10894.835421 " stroke="#52658c" stroke-width="100" stroke-opacity="1" stroke-miterlimit="22.926001"/><path stroke-linecap="round" transform="matrix(0.0902205, 0, 0, 0.0902154, -199.065925, -465.873917)" fill="none" stroke-linejoin="bevel" d="M 6717.611248 10894.835421 L 6265.160484 10894.835421 " stroke="#52658c" stroke-width="100" stroke-opacity="1" stroke-miterlimit="22.926001"/><path stroke-linecap="round" transform="matrix(0.0902205, 0, 0, 0.0902154, -199.065925, -465.873917)" fill="none" stroke-linejoin="bevel" d="M 9173.14164 10894.835421 L 7003.283031 10894.835421 " stroke="#52658c" stroke-width="100" stroke-opacity="1" stroke-miterlimit="22.926001"/><path stroke-linecap="round" transform="matrix(0.0902205, 0, 0, 0.0902154, -199.065925, -465.873917)" fill="none" stroke-linejoin="bevel" d="M 5535.610689 10695.919091 L 5060.342552 10695.919091 " stroke="#52658c" stroke-width="100" stroke-opacity="1" stroke-miterlimit="22.926001"/><path stroke-linecap="round" transform="matrix(0.0902205, 0, 0, 0.0902154, -199.065925, -465.873917)" fill="none" stroke-linejoin="bevel" d="M 6859.364721 10695.919091 L 6408.775717 10695.919091 " stroke="#52658c" stroke-width="100" stroke-opacity="1" stroke-miterlimit="22.926001"/><path stroke-linecap="round" transform="matrix(0.0902205, 0, 0, 0.0902154, -199.065925, -465.873917)" fill="none" stroke-linejoin="bevel" d="M 9234.622987 10695.919091 L 7144.083977 10695.919091 " stroke="#52658c" stroke-width="100" stroke-opacity="1" stroke-miterlimit="22.926001"/><path stroke-linecap="round" transform="matrix(0.0902205, 0, 0, 0.0902154, -199.065925, -465.873917)" fill="none" stroke-linejoin="bevel" d="M 5679.269218 10497.04606 L 5204.001081 10497.04606 " stroke="#52658c" stroke-width="100" stroke-opacity="1" stroke-miterlimit="22.926001"/><path stroke-linecap="round" transform="matrix(0.0902205, 0, 0, 0.0902154, -199.065925, -465.873917)" fill="none" stroke-linejoin="bevel" d="M 7001.074898 10497.04606 L 6552.39095 10497.04606 " stroke="#52658c" stroke-width="100" stroke-opacity="1" stroke-miterlimit="22.926001"/><path stroke-linecap="round" transform="matrix(0.0902205, 0, 0, 0.0902154, -199.065925, -465.873917)" fill="none" stroke-linejoin="bevel" d="M 9296.147632 10497.04606 L 7284.841626 10497.04606 " stroke="#52658c" stroke-width="100" stroke-opacity="1" stroke-miterlimit="22.926001"/><path stroke-linecap="round" transform="matrix(0.0902205, 0, 0, 0.0902154, -199.065925, -465.873917)" fill="none" stroke-linejoin="bevel" d="M 7142.828372 10298.12973 L 5347.616314 10298.12973 " stroke="#52658c" stroke-width="100" stroke-opacity="1" stroke-miterlimit="22.926001"/><path stroke-linecap="round" transform="matrix(0.0902205, 0, 0, 0.0902154, -199.065925, -465.873917)" fill="none" stroke-linejoin="bevel" d="M 9357.672276 10298.12973 L 7425.642572 10298.12973 " stroke="#52658c" stroke-width="100" stroke-opacity="1" stroke-miterlimit="22.926001"/><path stroke-linecap="round" transform="matrix(0.0902205, 0, 0, 0.0902154, -199.065925, -465.873917)" fill="none" stroke-linejoin="bevel" d="M 7284.538549 10099.2134 L 5491.231547 10099.2134 " stroke="#52658c" stroke-width="100" stroke-opacity="1" stroke-miterlimit="22.926001"/><path stroke-linecap="round" transform="matrix(0.0902205, 0, 0, 0.0902154, -199.065925, -465.873917)" fill="none" stroke-linejoin="bevel" d="M 9419.196921 10099.2134 L 7566.443517 10099.2134 " stroke="#52658c" stroke-width="100" stroke-opacity="1" stroke-miterlimit="22.926001"/><path stroke-linecap="round" transform="matrix(0.0902205, 0, 0, 0.0902154, -199.065925, -465.873917)" fill="none" stroke-linejoin="bevel" d="M 7426.292022 9900.340369 L 5634.890076 9900.340369 " stroke="#52658c" stroke-width="100" stroke-opacity="1" stroke-miterlimit="22.926001"/><path stroke-linecap="round" transform="matrix(0.0902205, 0, 0, 0.0902154, -199.065925, -465.873917)" fill="none" stroke-linejoin="bevel" d="M 9480.721565 9900.340369 L 7707.201166 9900.340369 " stroke="#52658c" stroke-width="100" stroke-opacity="1" stroke-miterlimit="22.926001"/><path stroke-linecap="round" transform="matrix(0.0902205, 0, 0, 0.0902154, -199.065925, -465.873917)" fill="none" stroke-linejoin="bevel" d="M 7568.002199 9701.42404 L 5778.505309 9701.42404 " stroke="#52658c" stroke-width="100" stroke-opacity="1" stroke-miterlimit="22.926001"/><path stroke-linecap="round" transform="matrix(0.0902205, 0, 0, 0.0902154, -199.065925, -465.873917)" fill="none" stroke-linejoin="bevel" d="M 9542.202913 9701.42404 L 7848.002112 9701.42404 " stroke="#52658c" stroke-width="100" stroke-opacity="1" stroke-miterlimit="22.926001"/><path stroke-linecap="round" transform="matrix(0.0902205, 0, 0, 0.0902154, -199.065925, -465.873917)" fill="none" stroke-linejoin="bevel" d="M 7459.240829 9502.50771 L 5922.120542 9502.50771 " stroke="#52658c" stroke-width="100" stroke-opacity="1" stroke-miterlimit="22.926001"/><path stroke-linecap="round" transform="matrix(0.0902205, 0, 0, 0.0902154, -199.065925, -465.873917)" fill="none" stroke-linejoin="bevel" d="M 9440.628799 9502.50771 L 7744.003381 9502.50771 " stroke="#52658c" stroke-width="100" stroke-opacity="1" stroke-miterlimit="22.926001"/><path stroke-linecap="round" transform="matrix(0.0902205, 0, 0, 0.0902154, -199.065925, -465.873917)" fill="none" stroke-linejoin="bevel" d="M 7350.479459 9303.634679 L 6065.779071 9303.634679 " stroke="#52658c" stroke-width="100" stroke-opacity="1" stroke-miterlimit="22.926001"/><path stroke-linecap="round" transform="matrix(0.0902205, 0, 0, 0.0902154, -199.065925, -465.873917)" fill="none" stroke-linejoin="bevel" d="M 9339.097982 9303.634679 L 7639.961354 9303.634679 " stroke="#52658c" stroke-width="100" stroke-opacity="1" stroke-miterlimit="22.926001"/><path stroke-linecap="round" transform="matrix(0.0902205, 0, 0, 0.0902154, -199.065925, -465.873917)" fill="none" stroke-linejoin="bevel" d="M 7241.718089 9104.718349 L 6209.394304 9104.718349 " stroke="#52658c" stroke-width="100" stroke-opacity="1" stroke-miterlimit="22.926001"/><path stroke-linecap="round" transform="matrix(0.0902205, 0, 0, 0.0902154, -199.065925, -465.873917)" fill="none" stroke-linejoin="bevel" d="M 9237.523868 9104.718349 L 7535.919327 9104.718349 " stroke="#52658c" stroke-width="100" stroke-opacity="1" stroke-miterlimit="22.926001"/><path stroke-linecap="round" transform="matrix(0.0902205, 0, 0, 0.0902154, -199.065925, -465.873917)" fill="none" stroke-linejoin="bevel" d="M 9135.949754 8905.802019 L 6353.009537 8905.802019 " stroke="#52658c" stroke-width="100" stroke-opacity="1" stroke-miterlimit="22.926001"/><path stroke-linecap="round" transform="matrix(0.0902205, 0, 0, 0.0902154, -199.065925, -465.873917)" fill="none" stroke-linejoin="bevel" d="M 9034.37564 8706.928988 L 6496.668066 8706.928988 " stroke="#52658c" stroke-width="100" stroke-opacity="1" stroke-miterlimit="22.926001"/><path stroke-linecap="round" transform="matrix(0.0902205, 0, 0, 0.0902154, -199.065925, -465.873917)" fill="none" stroke-linejoin="bevel" d="M 3668.439476 13281.658183 L 3193.171339 13281.658183 " stroke="#52658c" stroke-width="100" stroke-opacity="1" stroke-miterlimit="22.926001"/><path stroke-linecap="round" transform="matrix(0.0902205, 0, 0, 0.0902154, -199.065925, -465.873917)" fill="none" stroke-linejoin="bevel" d="M 5016.872641 13281.658183 L 4541.604504 13281.658183 " stroke="#52658c" stroke-width="100" stroke-opacity="1" stroke-miterlimit="22.926001"/><path stroke-linecap="round" transform="matrix(0.0902205, 0, 0, 0.0902154, -199.065925, -465.873917)" fill="none" stroke-linejoin="bevel" d="M 8896.432278 13281.658183 L 8653.147987 13281.658183 " stroke="#52658c" stroke-width="100" stroke-opacity="1" stroke-miterlimit="22.926001"/><path stroke-linecap="round" transform="matrix(0.0902205, 0, 0, 0.0902154, -199.065925, -465.873917)" fill="none" stroke-linejoin="bevel" d="M 3812.098006 13082.785152 L 3336.829869 13082.785152 " stroke="#52658c" stroke-width="100" stroke-opacity="1" stroke-miterlimit="22.926001"/><path stroke-linecap="round" transform="matrix(0.0902205, 0, 0, 0.0902154, -199.065925, -465.873917)" fill="none" stroke-linejoin="bevel" d="M 5158.582818 13082.785152 L 4685.219737 13082.785152 " stroke="#52658c" stroke-width="100" stroke-opacity="1" stroke-miterlimit="22.926001"/><path stroke-linecap="round" transform="matrix(0.0902205, 0, 0, 0.0902154, -199.065925, -465.873917)" fill="none" stroke-linejoin="bevel" d="M 8229.013281 13082.785152 L 7990.924597 13082.785152 " stroke="#52658c" stroke-width="100" stroke-opacity="1" stroke-miterlimit="22.926001"/><path stroke-linecap="round" transform="matrix(0.0902205, 0, 0, 0.0902154, -199.065925, -465.873917)" fill="none" stroke-linejoin="bevel" d="M 8759.874411 13082.785152 L 8520.660012 13082.785152 " stroke="#52658c" stroke-width="100" stroke-opacity="1" stroke-miterlimit="22.926001"/><path stroke-linecap="round" transform="matrix(0.0902205, 0, 0, 0.0902154, -199.065925, -465.873917)" fill="none" stroke-linejoin="bevel" d="M 3955.713238 12883.868822 L 3480.445102 12883.868822 " stroke="#52658c" stroke-width="100" stroke-opacity="1" stroke-miterlimit="22.926001"/><path stroke-linecap="round" transform="matrix(0.0902205, 0, 0, 0.0902154, -199.065925, -465.873917)" fill="none" stroke-linejoin="bevel" d="M 5300.336292 12883.868822 L 4828.878267 12883.868822 " stroke="#52658c" stroke-width="100" stroke-opacity="1" stroke-miterlimit="22.926001"/><path stroke-linecap="round" transform="matrix(0.0902205, 0, 0, 0.0902154, -199.065925, -465.873917)" fill="none" stroke-linejoin="bevel" d="M 8623.273248 12883.868822 L 8128.564882 12883.868822 " stroke="#52658c" stroke-width="100" stroke-opacity="1" stroke-miterlimit="22.926001"/><path stroke-linecap="round" transform="matrix(0.0902205, 0, 0, 0.0902154, -199.065925, -465.873917)" fill="none" stroke-linejoin="bevel" d="M 4099.328471 12684.952492 L 3624.060334 12684.952492 " stroke="#52658c" stroke-width="100" stroke-opacity="1" stroke-miterlimit="22.926001"/><path stroke-linecap="round" transform="matrix(0.0902205, 0, 0, 0.0902154, -199.065925, -465.873917)" fill="none" stroke-linejoin="bevel" d="M 5442.046469 12684.952492 L 4972.493499 12684.952492 " stroke="#52658c" stroke-width="100" stroke-opacity="1" stroke-miterlimit="22.926001"/><path stroke-linecap="round" transform="matrix(0.0902205, 0, 0, 0.0902154, -199.065925, -465.873917)" fill="none" stroke-linejoin="bevel" d="M 8486.715381 12684.952492 L 8266.205167 12684.952492 " stroke="#52658c" stroke-width="100" stroke-opacity="1" stroke-miterlimit="22.926001"/><path stroke-linecap="round" transform="matrix(0.0902205, 0, 0, 0.0902154, -199.065925, -465.873917)" fill="none" stroke-linejoin="bevel" d="M 4242.987001 12486.079461 L 3767.718864 12486.079461 " stroke="#52658c" stroke-width="100" stroke-opacity="1" stroke-miterlimit="22.926001"/><path stroke-linecap="round" transform="matrix(0.0902205, 0, 0, 0.0902154, -199.065925, -465.873917)" fill="none" stroke-linejoin="bevel" d="M 5583.799942 12486.079461 L 5116.108732 12486.079461 " stroke="#52658c" stroke-width="100" stroke-opacity="1" stroke-miterlimit="22.926001"/><path stroke-linecap="round" transform="matrix(0.0902205, 0, 0, 0.0902154, -199.065925, -465.873917)" fill="none" stroke-linejoin="bevel" d="M 8486.715381 12486.079461 L 8266.205167 12486.079461 " stroke="#52658c" stroke-width="100" stroke-opacity="1" stroke-miterlimit="22.926001"/><path stroke-linecap="round" transform="matrix(0.0902205, 0, 0, 0.0902154, -199.065925, -465.873917)" fill="none" stroke-linejoin="bevel" d="M 4386.602233 12287.163131 L 3911.334097 12287.163131 " stroke="#52658c" stroke-width="100" stroke-opacity="1" stroke-miterlimit="22.926001"/><path stroke-linecap="round" transform="matrix(0.0902205, 0, 0, 0.0902154, -199.065925, -465.873917)" fill="none" stroke-linejoin="bevel" d="M 5725.510119 12287.163131 L 5259.767262 12287.163131 " stroke="#52658c" stroke-width="100" stroke-opacity="1" stroke-miterlimit="22.926001"/><path stroke-linecap="round" transform="matrix(0.0902205, 0, 0, 0.0902154, -199.065925, -465.873917)" fill="none" stroke-linejoin="bevel" d="M 8486.715381 12287.163131 L 8266.205167 12287.163131 " stroke="#52658c" stroke-width="100" stroke-opacity="1" stroke-miterlimit="22.926001"/><path stroke-linecap="round" transform="matrix(0.0902205, 0, 0, 0.0902154, -199.065925, -465.873917)" fill="none" stroke-linejoin="bevel" d="M 4530.217466 12088.246802 L 4054.949329 12088.246802 " stroke="#52658c" stroke-width="100" stroke-opacity="1" stroke-miterlimit="22.926001"/><path stroke-linecap="round" transform="matrix(0.0902205, 0, 0, 0.0902154, -199.065925, -465.873917)" fill="none" stroke-linejoin="bevel" d="M 5867.263593 12088.246802 L 5403.382494 12088.246802 " stroke="#52658c" stroke-width="100" stroke-opacity="1" stroke-miterlimit="22.926001"/><path stroke-linecap="round" transform="matrix(0.0902205, 0, 0, 0.0902154, -199.065925, -465.873917)" fill="none" stroke-linejoin="bevel" d="M 8486.715381 12088.246802 L 8266.205167 12088.246802 " stroke="#52658c" stroke-width="100" stroke-opacity="1" stroke-miterlimit="22.926001"/><path stroke-linecap="round" transform="matrix(0.0902205, 0, 0, 0.0902154, -199.065925, -465.873917)" fill="none" stroke-linejoin="bevel" d="M 4673.832699 11889.373771 L 4198.607859 11889.373771 " stroke="#52658c" stroke-width="100" stroke-opacity="1" stroke-miterlimit="22.926001"/><path stroke-linecap="round" transform="matrix(0.0902205, 0, 0, 0.0902154, -199.065925, -465.873917)" fill="none" stroke-linejoin="bevel" d="M 6008.97377 11889.373771 L 5546.997727 11889.373771 " stroke="#52658c" stroke-width="100" stroke-opacity="1" stroke-miterlimit="22.926001"/><path stroke-linecap="round" transform="matrix(0.0902205, 0, 0, 0.0902154, -199.065925, -465.873917)" fill="none" stroke-linejoin="bevel" d="M 8486.715381 11889.373771 L 8266.205167 11889.373771 " stroke="#52658c" stroke-width="100" stroke-opacity="1" stroke-miterlimit="22.926001"/><path stroke-linecap="round" transform="matrix(0.0902205, 0, 0, 0.0902154, -199.065925, -465.873917)" fill="none" stroke-linejoin="bevel" d="M 4817.491228 11690.457441 L 4342.223092 11690.457441 " stroke="#52658c" stroke-width="100" stroke-opacity="1" stroke-miterlimit="22.926001"/><path stroke-linecap="round" transform="matrix(0.0902205, 0, 0, 0.0902154, -199.065925, -465.873917)" fill="none" stroke-linejoin="bevel" d="M 6150.727243 11690.457441 L 5690.656257 11690.457441 " stroke="#52658c" stroke-width="100" stroke-opacity="1" stroke-miterlimit="22.926001"/><path stroke-linecap="round" transform="matrix(0.0902205, 0, 0, 0.0902154, -199.065925, -465.873917)" fill="none" stroke-linejoin="bevel" d="M 8927.043062 11690.457441 L 6969.3384 11690.457441 " stroke="#52658c" stroke-width="100" stroke-opacity="1" stroke-miterlimit="22.926001"/><path stroke-linecap="round" transform="matrix(0.0902205, 0, 0, 0.0902154, -199.065925, -465.873917)" fill="none" stroke-linejoin="bevel" d="M 4961.106461 11491.541111 L 4485.838324 11491.541111 " stroke="#52658c" stroke-width="100" stroke-opacity="1" stroke-miterlimit="22.926001"/><path stroke-linecap="round" transform="matrix(0.0902205, 0, 0, 0.0902154, -199.065925, -465.873917)" fill="none" stroke-linejoin="bevel" d="M 6292.43742 11491.541111 L 5834.271489 11491.541111 " stroke="#52658c" stroke-width="100" stroke-opacity="1" stroke-miterlimit="22.926001"/><path stroke-linecap="round" transform="matrix(0.0902205, 0, 0, 0.0902154, -199.065925, -465.873917)" fill="none" stroke-linejoin="bevel" d="M 8988.567706 11491.541111 L 6907.813755 11491.541111 " stroke="#52658c" stroke-width="100" stroke-opacity="1" stroke-miterlimit="22.926001"/><path stroke-linecap="round" transform="matrix(0.0902205, 0, 0, 0.0902154, -199.065925, -465.873917)" fill="none" stroke-linejoin="bevel" d="M 5104.721694 11292.66808 L 4629.453557 11292.66808 " stroke="#52658c" stroke-width="100" stroke-opacity="1" stroke-miterlimit="22.926001"/><path stroke-linecap="round" transform="matrix(0.0902205, 0, 0, 0.0902154, -199.065925, -465.873917)" fill="none" stroke-linejoin="bevel" d="M 6434.190894 11292.66808 L 5977.886722 11292.66808 " stroke="#52658c" stroke-width="100" stroke-opacity="1" stroke-miterlimit="22.926001"/><path stroke-linecap="round" transform="matrix(0.0902205, 0, 0, 0.0902154, -199.065925, -465.873917)" fill="none" stroke-linejoin="bevel" d="M 9050.092351 11292.66808 L 6846.289111 11292.66808 " stroke="#52658c" stroke-width="100" stroke-opacity="1" stroke-miterlimit="22.926001"/><path stroke-linecap="round" transform="matrix(0.0902205, 0, 0, 0.0902154, -199.065925, -465.873917)" fill="none" stroke-linejoin="bevel" d="M 8932.801526 8508.012659 L 6640.283299 8508.012659 " stroke="#52658c" stroke-width="100" stroke-opacity="1" stroke-miterlimit="22.926001"/><path stroke-linecap="round" transform="matrix(0.0902205, 0, 0, 0.0902154, -199.065925, -465.873917)" fill="none" stroke-linejoin="bevel" d="M 7142.352108 13281.658183 L 6877.679236 13281.658183 " stroke="#52658c" stroke-width="100" stroke-opacity="1" stroke-miterlimit="22.926001"/><path stroke-linecap="round" transform="matrix(0.0902205, 0, 0, 0.0902154, -199.065925, -465.873917)" fill="none" stroke-linejoin="bevel" d="M 8111.67916 13281.658183 L 7698.931492 13281.658183 " stroke="#52658c" stroke-width="100" stroke-opacity="1" stroke-miterlimit="22.926001"/><path stroke-linecap="round" transform="matrix(0.0902205, 0, 0, 0.0902154, -199.065925, -465.873917)" fill="none" stroke-linejoin="bevel" d="M 7274.796786 13082.785152 L 7036.708102 13082.785152 " stroke="#52658c" stroke-width="100" stroke-opacity="1" stroke-miterlimit="22.926001"/><path stroke-linecap="round" transform="matrix(0.0902205, 0, 0, 0.0902154, -199.065925, -465.873917)" fill="none" stroke-linejoin="bevel" d="M 7805.657916 13082.785152 L 7566.443517 13082.785152 " stroke="#52658c" stroke-width="100" stroke-opacity="1" stroke-miterlimit="22.926001"/><path stroke-linecap="round" transform="matrix(0.0902205, 0, 0, 0.0902154, -199.065925, -465.873917)" fill="none" stroke-linejoin="bevel" d="M 7669.100049 12883.868822 L 7174.348387 12883.868822 " stroke="#52658c" stroke-width="100" stroke-opacity="1" stroke-miterlimit="22.926001"/><path stroke-linecap="round" transform="matrix(0.0902205, 0, 0, 0.0902154, -199.065925, -465.873917)" fill="none" stroke-linejoin="bevel" d="M 7532.498886 12486.079461 L 7311.988672 12486.079461 " stroke="#52658c" stroke-width="100" stroke-opacity="1" stroke-miterlimit="22.926001"/><path stroke-linecap="round" transform="matrix(0.0902205, 0, 0, 0.0902154, -199.065925, -465.873917)" fill="none" stroke-linejoin="bevel" d="M 7532.498886 12287.163131 L 7311.988672 12287.163131 " stroke="#52658c" stroke-width="100" stroke-opacity="1" stroke-miterlimit="22.926001"/><path stroke-linecap="round" transform="matrix(0.0902205, 0, 0, 0.0902154, -199.065925, -465.873917)" fill="none" stroke-linejoin="bevel" d="M 7532.498886 12088.246802 L 7311.988672 12088.246802 " stroke="#52658c" stroke-width="100" stroke-opacity="1" stroke-miterlimit="22.926001"/><path stroke-linecap="round" transform="matrix(0.0902205, 0, 0, 0.0902154, -199.065925, -465.873917)" fill="none" stroke-linejoin="bevel" d="M 7532.498886 11889.373771 L 7311.988672 11889.373771 " stroke="#52658c" stroke-width="100" stroke-opacity="1" stroke-miterlimit="22.926001"/><path stroke-linecap="round" transform="matrix(0.0902205, 0, 0, 0.0902154, -199.065925, -465.873917)" fill="none" stroke-linejoin="bevel" d="M 8088.94838 5723.357237 L 7619.39541 5723.357237 " stroke="#52658c" stroke-width="100" stroke-opacity="1" stroke-miterlimit="22.926001"/><path stroke-linecap="round" transform="matrix(0.0902205, 0, 0, 0.0902154, -199.065925, -465.873917)" fill="none" stroke-linejoin="bevel" d="M 7532.498886 12684.952492 L 7311.988672 12684.952492 " stroke="#52658c" stroke-width="100" stroke-opacity="1" stroke-miterlimit="22.926001"/><path stroke-linecap="round" transform="matrix(0.0902205, 0, 0, 0.0902154, -199.065925, -465.873917)" fill="none" stroke-linejoin="bevel" d="M 5905.88427 11093.75175 L 5451.528451 11093.75175 " stroke="#52658c" stroke-width="100" stroke-opacity="1" stroke-miterlimit="22.926001"/><path stroke-linecap="round" transform="matrix(0.0902205, 0, 0, 0.0902154, -199.065925, -465.873917)" fill="none" stroke-linejoin="bevel" d="M 6047.637744 10894.835421 L 5595.143684 10894.835421 " stroke="#52658c" stroke-width="100" stroke-opacity="1" stroke-miterlimit="22.926001"/><path stroke-linecap="round" transform="matrix(0.0902205, 0, 0, 0.0902154, -199.065925, -465.873917)" fill="none" stroke-linejoin="bevel" d="M 6189.347921 10695.919091 L 5738.758917 10695.919091 " stroke="#52658c" stroke-width="100" stroke-opacity="1" stroke-miterlimit="22.926001"/><path stroke-linecap="round" transform="matrix(0.0902205, 0, 0, 0.0902154, -199.065925, -465.873917)" fill="none" stroke-linejoin="bevel" d="M 6331.101395 10497.04606 L 5882.417446 10497.04606 " stroke="#52658c" stroke-width="100" stroke-opacity="1" stroke-miterlimit="22.926001"/><path stroke-linecap="round" transform="matrix(0.0902205, 0, 0, 0.0902154, -199.065925, -465.873917)" fill="none" stroke-linejoin="bevel" d="M 4346.899138 13281.658183 L 3871.631001 13281.658183 " stroke="#52658c" stroke-width="100" stroke-opacity="1" stroke-miterlimit="22.926001"/><path stroke-linecap="round" transform="matrix(0.0902205, 0, 0, 0.0902154, -199.065925, -465.873917)" fill="none" stroke-linejoin="bevel" d="M 4488.609315 13082.785152 L 4015.246234 13082.785152 " stroke="#52658c" stroke-width="100" stroke-opacity="1" stroke-miterlimit="22.926001"/><path stroke-linecap="round" transform="matrix(0.0902205, 0, 0, 0.0902154, -199.065925, -465.873917)" fill="none" stroke-linejoin="bevel" d="M 4630.319491 12883.868822 L 4158.861466 12883.868822 " stroke="#52658c" stroke-width="100" stroke-opacity="1" stroke-miterlimit="22.926001"/><path stroke-linecap="round" transform="matrix(0.0902205, 0, 0, 0.0902154, -199.065925, -465.873917)" fill="none" stroke-linejoin="bevel" d="M 4772.072965 12684.952492 L 4302.519996 12684.952492 " stroke="#52658c" stroke-width="100" stroke-opacity="1" stroke-miterlimit="22.926001"/><path stroke-linecap="round" transform="matrix(0.0902205, 0, 0, 0.0902154, -199.065925, -465.873917)" fill="none" stroke-linejoin="bevel" d="M 4913.783142 12486.079461 L 4446.135229 12486.079461 " stroke="#52658c" stroke-width="100" stroke-opacity="1" stroke-miterlimit="22.926001"/><path stroke-linecap="round" transform="matrix(0.0902205, 0, 0, 0.0902154, -199.065925, -465.873917)" fill="none" stroke-linejoin="bevel" d="M 5055.536616 12287.163131 L 4589.750461 12287.163131 " stroke="#52658c" stroke-width="100" stroke-opacity="1" stroke-miterlimit="22.926001"/><path stroke-linecap="round" transform="matrix(0.0902205, 0, 0, 0.0902154, -199.065925, -465.873917)" fill="none" stroke-linejoin="bevel" d="M 5197.246793 12088.246802 L 4733.365694 12088.246802 " stroke="#52658c" stroke-width="100" stroke-opacity="1" stroke-miterlimit="22.926001"/><path stroke-linecap="round" transform="matrix(0.0902205, 0, 0, 0.0902154, -199.065925, -465.873917)" fill="none" stroke-linejoin="bevel" d="M 5339.000266 11889.373771 L 4877.024224 11889.373771 " stroke="#52658c" stroke-width="100" stroke-opacity="1" stroke-miterlimit="22.926001"/><path stroke-linecap="round" transform="matrix(0.0902205, 0, 0, 0.0902154, -199.065925, -465.873917)" fill="none" stroke-linejoin="bevel" d="M 5480.710443 11690.457441 L 5020.639456 11690.457441 " stroke="#52658c" stroke-width="100" stroke-opacity="1" stroke-miterlimit="22.926001"/><path stroke-linecap="round" transform="matrix(0.0902205, 0, 0, 0.0902154, -199.065925, -465.873917)" fill="none" stroke-linejoin="bevel" d="M 5622.42062 11491.541111 L 5164.254689 11491.541111 " stroke="#52658c" stroke-width="100" stroke-opacity="1" stroke-miterlimit="22.926001"/><path stroke-linecap="round" transform="matrix(0.0902205, 0, 0, 0.0902154, -199.065925, -465.873917)" fill="none" stroke-linejoin="bevel" d="M 5764.174094 11292.66808 L 5307.913218 11292.66808 " stroke="#52658c" stroke-width="100" stroke-opacity="1" stroke-miterlimit="22.926001"/></svg>